# xmcd CD database file
#
# Track frame offsets:
#	187
#	22597
#	45102
#	66040
#	89087
#	108355
#	127020
#	146055
#	163242
#
# Disc length: 2476 seconds
#
# Revision: 0
# Processed by: cddbd v1.5.1PL0 Copyright (c) Steve Scherf et al.
# Submitted via: CDex 1.50
#
DISCID=7309aa09
DTITLE=高村亜留 - Ta Ta Ya My Love -ARU 2nd.-
DYEAR=1983
DGENRE=Japanese Pop
TTITLE0=I'm In Love
TTITLE1=最後のTenderness
TTITLE2=皆既月食
TTITLE3=Beat Goes On
TTITLE4=Ta Ta Ya My Love
TTITLE5=Appeal To You
TTITLE6=Inside
TTITLE7=1/2×Love
TTITLE8=Good Luck Again
EXTD=YEAR: 1983
EXTT0=
EXTT1=
EXTT2=
EXTT3=
EXTT4=
EXTT5=
EXTT6=
EXTT7=
EXTT8=
PLAYORDER=
